# File created by Blade
# Date/Time:  Tue Jan 27 18:12:42 2015
# Frame Rate: 120.000 fps
#------------------------------------------------------
:FULLY-SPECIFIED
:DEGREES
2892
root -1.475165 31.853814 -6.625525 6.208359 4.360222 2.779153
Spine -5.499299 -20.698022 -1.262514
Head 16.051948 18.911972 10.585849
LeftShoulder -16.465242 18.842007 4.175856
LeftArm 26.515187 40.344312 -68.514305
LeftForeArm -0.965262 -0.000000 16.572568
LeftHand -11.582076 0.000000 -3.668809
LeftHandThumb1 -26.253704 0.000000 33.147579
RightShoulder -21.993794 -8.826828 -17.827366
RightArm -20.282139 71.433442 47.492930
RightForeArm 40.705479 -0.000000 146.067091
RightHand 0.529333 -0.000000 14.134220
RightHandThumb1 -24.326973 -0.000000 -32.862282
LeftUpLeg -1.716802 1.143242 -0.778527
LeftLeg 0.832325 -0.000000 -0.000000
LeftFoot -18.493420 17.220242 -24.947297
LeftToeBase 8.654991 -0.000000 -0.000000
RightUpLeg -0.156708 -1.862034 -3.437727
RightLeg -2.505275 -0.000000 0.000000
RightFoot -15.173977 -13.111661 9.901475
RightToeBase 5.068843 -0.000000 -0.000000
2893
root -1.479529 31.854010 -6.629171 6.195969 4.353663 2.776320
Spine -5.487284 -20.713983 -1.264464
Head 16.130023 19.000349 10.614132
LeftShoulder -16.474085 18.827759 4.169317
LeftArm 26.553880 40.328509 -68.476727
LeftForeArm -0.969689 -0.000000 16.610804
LeftHand -11.590713 -0.000000 -3.575106
LeftHandThumb1 -26.253704 0.000000 33.147579
RightShoulder -22.074748 -8.925053 -17.856133
RightArm -19.725039 71.825926 47.936807
RightForeArm 41.293304 -0.000000 147.240505
RightHand 1.137940 -0.000000 15.189729
RightHandThumb1 -24.326973 -0.000000 -32.862282
LeftUpLeg -1.711580 1.160635 -0.769044
LeftLeg 0.834444 -0.000000 -0.000000
LeftFoot -18.495076 17.216173 -24.952619
LeftToeBase 8.687749 -0.000000 -0.000000
RightUpLeg -0.155288 -1.881533 -3.426477
RightLeg -2.501135 -0.000000 0.000000
RightFoot -15.163815 -13.095200 9.881155
RightToeBase 5.064182 -0.000000 -0.000000
2894
root -1.483634 31.854037 -6.633319 6.186527 4.352684 2.777255
Spine -5.472531 -20.735608 -1.277314
Head 16.196767 19.066174 10.656255
LeftShoulder -16.487092 18.810941 4.174655
LeftArm 26.587452 40.289104 -68.471258
LeftForeArm -0.946634 -0.000000 16.648957
LeftHand -11.608789 -0.000000 -3.535300
LeftHandThumb1 -26.253704 0.000000 33.147579
RightShoulder -22.162359 -9.030399 -17.877641
RightArm -19.088436 72.217278 48.472678
RightForeArm 41.816582 0.000000 148.354809
RightHand 1.766306 -0.000000 16.156524
RightHandThumb1 -24.326973 -0.000000 -32.862282
LeftUpLeg -1.712682 1.168039 -0.763745
LeftLeg 0.839782 -0.000000 -0.000000
LeftFoot -18.477234 17.205350 -24.945512
LeftToeBase 8.669739 -0.000000 -0.000000
RightUpLeg -0.157879 -1.879164 -3.422564
RightLeg -2.487908 -0.000000 0.000000
RightFoot -15.166571 -13.089384 9.866391
RightToeBase 5.014039 -0.000000 -0.000000
2895
root -1.487032 31.853875 -6.637063 6.177105 4.353647 2.777151
Spine -5.459254 -20.748215 -1.289893
Head 16.254872 19.120653 10.704548
LeftShoulder -16.480528 18.784427 4.184030
LeftArm 26.610529 40.257244 -68.467616
LeftForeArm -0.944029 -0.000000 16.685774
LeftHand -11.522949 -0.000000 -3.553404
LeftHandThumb1 -26.253704 0.000000 33.147579
RightShoulder -22.272707 -9.194458 -17.889116
RightArm -18.195293 72.595225 49.250378
RightForeArm 42.176696 0.000000 149.375600
RightHand 2.467252 -0.000000 17.094480
RightHandThumb1 -24.326973 -0.000000 -32.862282
LeftUpLeg -1.711577 1.178167 -0.758410
LeftLeg 0.839910 -0.000000 -0.000000
LeftFoot -18.470329 17.198370 -24.935326
LeftToeBase 8.699382 -0.000000 -0.000000
RightUpLeg -0.152867 -1.876962 -3.414552
RightLeg -2.496034 -0.000000 0.000000
RightFoot -15.160779 -13.105689 9.883137
RightToeBase 5.008050 -0.000000 -0.000000
2896
root -1.490621 31.854310 -6.640604 6.163504 4.350390 2.775542
Spine -5.447572 -20.772359 -1.308613
Head 16.342222 19.172533 10.781040
LeftShoulder -16.460500 18.757390 4.196465
LeftArm 26.587226 40.151465 -68.528192
LeftForeArm -0.863722 -0.000000 16.706957
LeftHand -11.506918 -0.000000 -3.690535
LeftHandThumb1 -26.253704 0.000000 33.147579
RightShoulder -22.264930 -9.066588 -18.031647
RightArm -18.636500 72.989681 48.787332
RightForeArm 42.709336 0.000000 150.255390
RightHand 3.256911 -0.000000 18.358155
RightHandThumb1 -24.326973 -0.000000 -32.862282
LeftUpLeg -1.702205 1.194493 -0.750790
LeftLeg 0.833727 -0.000000 -0.000000
LeftFoot -18.461769 17.190596 -24.960287
LeftToeBase 8.682479 -0.000000 -0.000000
RightUpLeg -0.143985 -1.854152 -3.411298
RightLeg -2.498302 -0.000000 0.000000
RightFoot -15.161367 -13.103133 9.888482
RightToeBase 5.051622 -0.000000 -0.000000
2897
root -1.494604 31.854136 -6.644501 6.165843 4.360675 2.774650
Spine -5.442740 -20.804153 -1.327235
Head 16.388239 19.200044 10.857498
LeftShoulder -16.466650 18.725238 4.207282
LeftArm 26.629606 40.203219 -68.473609
LeftForeArm -0.937728 -0.000000 16.767743
LeftHand -11.604907 -0.000000 -3.612015
LeftHandThumb1 -26.253704 0.000000 33.147579
RightShoulder -22.337009 -9.113151 -18.092440
RightArm -18.289715 73.501429 49.072987
RightForeArm 43.368528 -0.000000 151.025986
RightHand 3.832838 -0.000000 19.711080
RightHandThumb1 -24.326973 -0.000000 -32.862282
LeftUpLeg -1.711520 1.192375 -0.741518
LeftLeg 0.830717 -0.000000 -0.000000
LeftFoot -18.442950 17.186794 -24.932526
LeftToeBase 8.696295 -0.000000 -0.000000
RightUpLeg -0.153146 -1.856184 -3.404611
RightLeg -2.498879 -0.000000 0.000000
RightFoot -15.154869 -13.063001 9.993245
RightToeBase 5.059698 -0.000000 -0.000000
2898
root -1.497573 31.854101 -6.648829 6.156924 4.365704 2.766301
Spine -5.415508 -20.818852 -1.341415
Head 16.402178 19.212790 10.916343
LeftShoulder -16.460601 18.698236 4.208195
LeftArm 26.682953 40.203486 -68.438193
LeftForeArm -0.947917 -0.000000 16.809259
LeftHand -11.620445 -0.000000 -3.586155
LeftHandThumb1 -26.253704 0.000000 33.147579
RightShoulder -22.459643 -9.192318 -18.143201
RightArm -17.612300 74.008903 49.704732
RightForeArm 43.999500 -0.000000 151.644203
RightHand 4.254589 0.000000 21.147453
RightHandThumb1 -24.326973 -0.000000 -32.862282
LeftUpLeg -1.711297 1.201593 -0.728273
LeftLeg 0.826861 -0.000000 -0.000000
LeftFoot -18.419640 17.171482 -24.910729
LeftToeBase 8.654798 -0.000000 -0.000000
RightUpLeg -0.149583 -1.845390 -3.390567
RightLeg -2.502248 -0.000000 0.000000
RightFoot -15.151415 -13.116929 9.869442
RightToeBase 5.058680 -0.000000 -0.000000
2899
root -1.501672 31.854568 -6.654350 6.164864 4.369412 2.756470
Spine -5.414018 -20.855355 -1.358108
Head 16.451039 19.222568 11.011546
LeftShoulder -16.449870 18.645255 4.223354
LeftArm 26.649911 40.147128 -68.493209
LeftForeArm -0.900243 -0.000000 16.851219
LeftHand -11.496191 -0.000000 -3.593344
LeftHandThumb1 -26.253704 0.000000 33.147579
RightShoulder -22.521972 -9.220503 -18.219910
RightArm -17.179382 74.446749 50.123221
RightForeArm 44.511424 -0.000000 152.093262
RightHand 4.578117 -0.000000 22.573269
RightHandThumb1 -24.326973 -0.000000 -32.862282
LeftUpLeg -1.732414 1.218720 -0.712276
LeftLeg 0.830551 -0.000000 -0.000000
LeftFoot -18.421768 17.155321 -24.936502
LeftToeBase 8.706903 -0.000000 -0.000000
RightUpLeg -0.170187 -1.818163 -3.376223
RightLeg -2.497286 -0.000000 0.000000
RightFoot -15.154360 -13.123787 9.891672
RightToeBase 5.075391 -0.000000 -0.000000
2900
root -1.505284 31.854880 -6.659391 6.165587 4.379940 2.749962
Spine -5.403750 -20.901642 -1.379046
Head 16.496426 19.237038 11.101945
LeftShoulder -16.451404 18.634684 4.230336
LeftArm 26.689295 40.119629 -68.488487
LeftForeArm -0.900600 -0.000000 16.882799
LeftHand -11.509029 -0.000000 -3.631127
LeftHandThumb1 -26.253704 0.000000 33.147579
RightShoulder -22.578257 -9.033825 -18.335909
RightArm -17.251516 74.616614 50.000166
RightForeArm 44.816890 0.000000 152.405823
RightHand 4.581519 0.000000 23.720438
RightHandThumb1 -24.326973 -0.000000 -32.862282
LeftUpLeg -1.743634 1.223658 -0.699331
LeftLeg 0.830536 -0.000000 -0.000000
LeftFoot -18.403970 17.147478 -24.913114
LeftToeBase 8.685436 -0.000000 -0.000000
RightUpLeg -0.178108 -1.839896 -3.361991
RightLeg -2.501511 -0.000000 0.000000
RightFoot -15.133176 -13.114331 9.893173
RightToeBase 5.030963 -0.000000 -0.000000
